<svg xmlns="http://www.w3.org/2000/svg" id="Layer_2" data-name="Layer 2" viewBox="0 0 1090.93 303.65"><defs><style>      .cls-1 {        fill: #3ea2ff;      }      .cls-1, .cls-2, .cls-3, .cls-4 {        stroke-width: 0px;      }      .cls-2 {        fill: #fff;      }      .cls-3 {        fill: #3a85ff;      }      .cls-4 {        fill: #472f91;      }    </style></defs><g id="Layer_1-2" data-name="Layer 1"><g><g><path class="cls-4" d="m372.38,174.4v-91.43h30.86v88.73c0,10.22,4.82,18.9,21.22,18.9s21.22-8.68,21.22-18.9v-88.73h30.86v91.43c0,28.93-22.38,46.3-52.08,46.3s-52.08-17.36-52.08-46.3"></path><polygon class="cls-4" points="579.75 188.29 579.75 217.99 500.66 217.99 500.66 82.96 531.52 82.96 531.52 188.29 579.75 188.29"></polygon><polygon class="cls-4" points="672.34 112.67 637.62 112.67 637.62 217.99 606.75 217.99 606.75 112.67 572.03 112.67 572.03 82.96 672.34 82.96 672.34 112.67"></polygon><polygon class="cls-4" points="892.25 112.67 857.52 112.67 857.52 217.99 826.66 217.99 826.66 112.67 791.94 112.67 791.94 82.96 892.25 82.96 892.25 112.67"></polygon><polygon class="cls-4" points="992.55 188.29 992.55 217.99 907.67 217.99 907.67 82.96 991.59 82.96 991.59 112.67 938.54 112.67 938.54 135.05 986.76 135.05 986.76 164.37 938.54 164.37 938.54 188.29 992.55 188.29"></polygon><polygon class="cls-4" points="1090.93 188.29 1090.93 217.99 1011.84 217.99 1011.84 82.96 1042.7 82.96 1042.7 188.29 1090.93 188.29"></polygon><polygon class="cls-4" points="763.97 217.99 797.73 217.99 751.81 82.96 712.46 82.96 666.55 217.99 700.31 217.99 704.53 204.73 704.54 204.71 707.06 196.77 707.07 196.77 718.93 159.65 718.94 159.65 732.14 118.26 743.34 153.38 757.2 196.77 757.22 196.77 760.17 206.05 760.17 206.06 763.97 217.99"></polygon></g><g><path class="cls-2" d="m21.02,218.42l115.34,66.59,115.34-66.59V85.23L136.37,18.64,21.02,85.23v133.19Z"></path><path class="cls-1" d="m136.37,39.59l-35.6,22.32v140.48l-26-15.01v-111.67l-30.29,17.01c-3.28,1.84-5.31,5.31-5.31,9.07v100.14c0,3.72,1.98,7.15,5.2,9.01l91.99,53.11v-27.63h0V89.85l25.96,13.71v148.45l35.6-20.3v-109.35l35.63,18.81v-39.46c0-3.72-1.98-7.15-5.2-9.01l-91.99-53.11Z"></path><path class="cls-3" d="m136.37,39.59l91.99,53.11c3.22,1.86,5.2,5.29,5.2,9.01v39.46l-35.63-18.81v109.35l-35.6,20.3V103.56l-25.96-13.71v-50.26Z"></path><path class="cls-4" d="m118.17,298.78l-99.96-57.71c-11.26-6.5-18.2-18.52-18.2-31.52v-115.43c0-13,6.94-25.02,18.2-31.52L118.14,4.88c11.28-6.51,25.17-6.51,36.45,0l99.94,57.7c11.26,6.5,18.2,18.52,18.2,31.52v115.43c0,13-6.94,25.02-18.2,31.52l-99.97,57.71c-11.26,6.5-25.14,6.5-36.4,0ZM28.82,222.92l99.74,57.59c4.83,2.79,10.77,2.79,15.6,0l99.74-57.59c4.83-2.79,7.8-7.94,7.8-13.51v-115.17c0-5.57-2.97-10.72-7.8-13.51l-99.74-57.59c-4.83-2.79-10.77-2.79-15.6,0L28.82,80.73c-4.83,2.79-7.8,7.94-7.8,13.51v115.17c0,5.57,2.97,10.72,7.8,13.51Z"></path></g></g></g></svg>